<?xml version="1.0" encoding="UTF-8"?>
<!DOCTYPE svg PUBLIC "-//W3C//DTD SVG 1.1//EN" "http://www.w3.org/Graphics/SVG/1.1/DTD/svg11.dtd">
<svg xmlns="http://www.w3.org/2000/svg" version="1.1" width="408px" height="78px" style="shape-rendering:geometricPrecision; text-rendering:geometricPrecision; image-rendering:optimizeQuality; fill-rule:evenodd; clip-rule:evenodd" xmlns:xlink="http://www.w3.org/1999/xlink">
<g><path style="opacity:0.085" fill="#dedede" d="M 343.5,8.5 C 344.629,10.6282 344.796,12.9615 344,15.5C 343.503,13.1902 343.337,10.8568 343.5,8.5 Z"/></g>
<g><path style="opacity:0.914" fill="#9b9b9b" d="M 45.5,10.5 C 45.5,10.8333 45.5,11.1667 45.5,11.5C 40.1667,11.5 34.8333,11.5 29.5,11.5C 34.6077,9.36802 39.941,9.03469 45.5,10.5 Z"/></g>
<g><path style="opacity:0.533" fill="#afafaf" d="M 173.5,22.5 C 171.798,19.2325 170.464,15.7325 169.5,12C 165.179,11.501 160.846,11.3343 156.5,11.5C 156.5,12.5 156.5,13.5 156.5,14.5C 155.566,13.4324 155.232,12.099 155.5,10.5C 160.511,10.3341 165.511,10.5007 170.5,11C 172.007,14.6904 173.007,18.5237 173.5,22.5 Z"/></g>
<g><path style="opacity:0.542" fill="#a2a2a2" d="M 202.5,12.5 C 197.595,11.5546 192.595,11.2213 187.5,11.5C 187.868,15.0443 186.868,18.0443 184.5,20.5C 185.051,17.1933 185.384,13.8599 185.5,10.5C 191.598,9.88335 197.265,10.55 202.5,12.5 Z"/></g>
<g><path style="opacity:0.525" fill="#acacac" d="M 231.5,19.5 C 231.575,16.7938 231.908,14.1272 232.5,11.5C 227.737,11.2256 223.07,11.559 218.5,12.5C 220.203,10.8592 222.37,9.8592 225,9.5C 227.719,10.4438 230.552,10.7771 233.5,10.5C 233.58,13.7814 232.913,16.7814 231.5,19.5 Z"/></g>
<g><path style="opacity:0.54" fill="#ababab" d="M 327.5,23.5 C 327.5,19.5 327.5,15.5 327.5,11.5C 313.833,11.5 300.167,11.5 286.5,11.5C 286.5,15.5 286.5,19.5 286.5,23.5C 285.515,19.3656 285.182,15.0323 285.5,10.5C 299.833,10.5 314.167,10.5 328.5,10.5C 328.818,15.0323 328.485,19.3656 327.5,23.5 Z"/></g>
<g><path style="opacity:1" fill="#585858" d="M 29.5,11.5 C 34.8333,11.5 40.1667,11.5 45.5,11.5C 47.7457,12.4552 50.079,13.1218 52.5,13.5C 53.4916,13.3284 54.1583,13.6618 54.5,14.5C 55.5387,16.5311 57.2054,17.8645 59.5,18.5C 60.3382,18.8417 60.6716,19.5084 60.5,20.5C 60.4431,21.609 60.1098,22.609 59.5,23.5C 58.4206,25.543 56.754,26.8763 54.5,27.5C 51.7628,27.5987 49.0961,27.2653 46.5,26.5C 45.391,26.4431 44.391,26.1098 43.5,25.5C 40.1667,22.8333 36.8333,22.8333 33.5,25.5C 32.0351,26.7368 30.3684,27.7368 28.5,28.5C 23.2609,33.1026 22.2609,38.4359 25.5,44.5C 25.427,46.0269 26.0937,47.0269 27.5,47.5C 28.3508,51.0706 30.6842,52.7372 34.5,52.5C 37.3035,53.6378 40.3035,53.8045 43.5,53C 44.056,52.6174 44.3893,52.1174 44.5,51.5C 44.8333,51.5 45.1667,51.5 45.5,51.5C 47.3841,51.2882 48.7174,50.2882 49.5,48.5C 45.2172,47.5078 40.8839,47.1744 36.5,47.5C 36.5,43.5 36.5,39.5 36.5,35.5C 46.5,35.5 56.5,35.5 66.5,35.5C 66.6469,40.2142 66.3136,44.8809 65.5,49.5C 64.3263,50.5137 63.6596,51.847 63.5,53.5C 63.573,55.0269 62.9063,56.0269 61.5,56.5C 60.5,56.8333 59.8333,57.5 59.5,58.5C 59.1667,59.5 58.5,60.1667 57.5,60.5C 56.1266,60.3433 54.7932,60.51 53.5,61C 54.5981,61.7697 54.5981,62.603 53.5,63.5C 53.1583,64.3382 52.4916,64.6716 51.5,64.5C 49.302,64.1201 47.6354,64.7868 46.5,66.5C 46.1667,66.5 45.8333,66.5 45.5,66.5C 41.4862,66.6655 37.4862,66.4988 33.5,66C 30.6473,64.5699 27.6473,63.7366 24.5,63.5C 24.0269,62.0937 23.0269,61.427 21.5,61.5C 21.1898,59.8564 20.1898,58.8564 18.5,58.5C 18.1667,57.5 17.5,56.8333 16.5,56.5C 13.6761,54.2004 11.8428,51.2004 11,47.5C 9.49086,42.8098 9.3242,38.1431 10.5,33.5C 11.9238,31.4855 12.5905,29.1522 12.5,26.5C 13.9063,26.0269 14.573,25.0269 14.5,23.5C 16.6326,21.9095 18.2993,19.9095 19.5,17.5C 21.4044,17.2624 22.7377,16.2624 23.5,14.5C 23.8417,13.6618 24.5084,13.3284 25.5,13.5C 27.153,13.3404 28.4863,12.6737 29.5,11.5 Z"/></g>
<g><path style="opacity:0.463" fill="#bababa" d="M 45.5,11.5 C 45.5,11.1667 45.5,10.8333 45.5,10.5C 48.2406,10.7073 50.5739,11.7073 52.5,13.5C 50.079,13.1218 47.7457,12.4552 45.5,11.5 Z"/></g>
<g><path style="opacity:0.847" fill="#a6a6a6" d="M 121.5,11.5 C 114.465,11.3257 107.465,11.6591 100.5,12.5C 107.397,9.22581 114.397,8.89248 121.5,11.5 Z"/></g>
<g><path style="opacity:1" fill="#5a5a5a" d="M 121.5,11.5 C 125.272,11.8838 128.272,13.5505 130.5,16.5C 130.973,17.9063 131.973,18.573 133.5,18.5C 133.427,20.0269 134.094,21.0269 135.5,21.5C 135.427,23.0269 136.094,24.0269 137.5,24.5C 138.674,25.5137 139.34,26.847 139.5,28.5C 140.307,34.4638 140.64,40.4638 140.5,46.5C 138.659,48.8485 137.326,51.5152 136.5,54.5C 135.094,54.9731 134.427,55.9731 134.5,57.5C 133.833,58.8333 132.833,59.8333 131.5,60.5C 129.973,60.427 128.973,61.0937 128.5,62.5C 128.5,63.1667 128.167,63.5 127.5,63.5C 124.458,63.7329 121.792,64.7329 119.5,66.5C 111.481,68.5366 103.814,67.37 96.5,63C 95.6195,62.2917 94.9528,61.4584 94.5,60.5C 93.7377,58.7376 92.4044,57.7376 90.5,57.5C 87.7758,54.7183 86.1092,51.385 85.5,47.5C 84.1667,41.5 84.1667,35.5 85.5,29.5C 85.5,29.1667 85.5,28.8333 85.5,28.5C 86.9063,28.0269 87.573,27.0269 87.5,25.5C 87.3284,24.5084 87.6618,23.8417 88.5,23.5C 89.9063,23.0269 90.573,22.0269 90.5,20.5C 91.8333,19.8333 92.8333,18.8333 93.5,17.5C 95.4044,17.2624 96.7377,16.2624 97.5,14.5C 99.0269,14.573 100.027,13.9063 100.5,12.5C 107.465,11.6591 114.465,11.3257 121.5,11.5 Z M 114.5,24.5 C 116.302,25.4582 118.302,26.1249 120.5,26.5C 121.5,28.1667 122.833,29.5 124.5,30.5C 126.143,34.3005 126.81,38.3005 126.5,42.5C 125.508,44.4561 124.508,46.4561 123.5,48.5C 121.596,48.7376 120.262,49.7376 119.5,51.5C 115.881,52.2436 112.215,52.577 108.5,52.5C 107.713,50.8958 106.38,50.2291 104.5,50.5C 104.5,49.8333 104.167,49.5 103.5,49.5C 102.833,48.1667 101.833,47.1667 100.5,46.5C 100.204,44.597 99.5375,42.9303 98.5,41.5C 98.5079,38.4552 98.8413,35.4552 99.5,32.5C 100.906,32.0269 101.573,31.0269 101.5,29.5C 103.272,27.7104 105.272,26.3771 107.5,25.5C 109.806,25.0074 112.139,24.6741 114.5,24.5 Z"/></g>
<g><path style="opacity:1" fill="#585858" d="M 173.5,22.5 C 174.793,25.6791 175.46,29.0124 175.5,32.5C 175.41,35.1522 176.076,37.4855 177.5,39.5C 178.301,41.7929 178.968,41.4596 179.5,38.5C 179.232,36.901 179.566,35.5676 180.5,34.5C 182.277,31.4954 183.277,28.1621 183.5,24.5C 183.232,22.901 183.566,21.5676 184.5,20.5C 186.868,18.0443 187.868,15.0443 187.5,11.5C 192.595,11.2213 197.595,11.5546 202.5,12.5C 203.434,13.5676 203.768,14.901 203.5,16.5C 203.232,18.099 203.566,19.4324 204.5,20.5C 205.434,21.5676 205.768,22.901 205.5,24.5C 205.723,28.1621 206.723,31.4954 208.5,34.5C 208.259,36.8984 208.926,38.8984 210.5,40.5C 210.833,40.5 211.167,40.5 211.5,40.5C 212.768,38.0948 213.435,35.4282 213.5,32.5C 213.565,29.5718 214.232,26.9052 215.5,24.5C 217.163,22.5615 217.829,20.2282 217.5,17.5C 217.366,15.7085 217.699,14.0418 218.5,12.5C 223.07,11.559 227.737,11.2256 232.5,11.5C 231.908,14.1272 231.575,16.7938 231.5,19.5C 231.737,20.791 231.404,21.791 230.5,22.5C 228.837,24.4385 228.171,26.7718 228.5,29.5C 228.768,31.099 228.434,32.4324 227.5,33.5C 224.979,37.6631 223.646,42.3298 223.5,47.5C 223.435,50.4282 222.768,53.0948 221.5,55.5C 219.96,57.8383 219.294,60.5049 219.5,63.5C 214.468,65.3699 209.135,66.0366 203.5,65.5C 203.5,65.1667 203.5,64.8333 203.5,64.5C 203.741,62.1016 203.074,60.1016 201.5,58.5C 201.59,55.8478 200.924,53.5145 199.5,51.5C 197.411,47.4985 196.078,43.1652 195.5,38.5C 195.719,37.325 195.386,36.325 194.5,35.5C 192.359,39.5903 191.025,43.9236 190.5,48.5C 188.656,50.2789 187.99,52.6122 188.5,55.5C 187.076,57.5145 186.41,59.8478 186.5,62.5C 185.596,63.209 185.263,64.209 185.5,65.5C 180.5,65.5 175.5,65.5 170.5,65.5C 168.723,62.4954 167.723,59.1621 167.5,55.5C 167.829,52.7718 167.163,50.4385 165.5,48.5C 165.5,48.1667 165.5,47.8333 165.5,47.5C 165.829,44.7718 165.163,42.4385 163.5,40.5C 163.829,37.7718 163.163,35.4385 161.5,33.5C 161.428,30.8067 161.095,28.1401 160.5,25.5C 160.36,23.9704 159.693,22.9704 158.5,22.5C 157.232,20.0948 156.565,17.4282 156.5,14.5C 156.5,13.5 156.5,12.5 156.5,11.5C 160.846,11.3343 165.179,11.501 169.5,12C 170.464,15.7325 171.798,19.2325 173.5,22.5 Z"/></g>
<g><path style="opacity:1" fill="#555555" d="M 327.5,23.5 C 322.833,23.5 318.167,23.5 313.5,23.5C 313.5,37.5 313.5,51.5 313.5,65.5C 309.167,65.5 304.833,65.5 300.5,65.5C 300.5,51.5 300.5,37.5 300.5,23.5C 295.833,23.5 291.167,23.5 286.5,23.5C 286.5,19.5 286.5,15.5 286.5,11.5C 300.167,11.5 313.833,11.5 327.5,11.5C 327.5,15.5 327.5,19.5 327.5,23.5 Z"/></g>
<g><path style="opacity:1" fill="#545454" d="M 361.5,31.5 C 368.5,31.5 375.5,31.5 382.5,31.5C 383.491,25.021 383.824,18.3543 383.5,11.5C 387.833,11.5 392.167,11.5 396.5,11.5C 396.5,29.5 396.5,47.5 396.5,65.5C 392.167,65.5 387.833,65.5 383.5,65.5C 383.813,58.2454 383.48,51.0787 382.5,44C 375.321,43.1787 368.321,43.3454 361.5,44.5C 360.509,51.3134 360.175,58.3134 360.5,65.5C 356.5,65.5 352.5,65.5 348.5,65.5C 348.5,47.5 348.5,29.5 348.5,11.5C 352.5,11.5 356.5,11.5 360.5,11.5C 360.176,18.3543 360.509,25.021 361.5,31.5 Z"/></g>
<g><path style="opacity:0.667" fill="#aaaaaa" d="M 29.5,11.5 C 28.4863,12.6737 27.153,13.3404 25.5,13.5C 26.287,11.8958 27.6203,11.2291 29.5,11.5 Z"/></g>
<g><path style="opacity:0.643" fill="#b2b2b2" d="M 100.5,12.5 C 100.027,13.9063 99.0269,14.573 97.5,14.5C 97.9731,13.0937 98.9731,12.427 100.5,12.5 Z"/></g>
<g><path style="opacity:0.631" fill="#a9a9a9" d="M 23.5,14.5 C 22.7377,16.2624 21.4044,17.2624 19.5,17.5C 20.2623,15.7376 21.5956,14.7376 23.5,14.5 Z"/></g>
<g><path style="opacity:0.686" fill="#a7a7a7" d="M 97.5,14.5 C 96.7377,16.2624 95.4044,17.2624 93.5,17.5C 94.2623,15.7376 95.5956,14.7376 97.5,14.5 Z"/></g>
<g><path style="opacity:0.525" fill="#bababa" d="M 54.5,14.5 C 56.754,15.1237 58.4206,16.457 59.5,18.5C 57.2054,17.8645 55.5387,16.5311 54.5,14.5 Z"/></g>
<g><path style="opacity:0.047" fill="#c9c9c9" d="M 130.5,16.5 C 132.027,16.427 133.027,17.0937 133.5,18.5C 131.973,18.573 130.973,17.9063 130.5,16.5 Z"/></g>
<g><path style="opacity:0.404" fill="#b8b8b8" d="M 93.5,17.5 C 92.8333,18.8333 91.8333,19.8333 90.5,20.5C 90.5,18.5 91.5,17.5 93.5,17.5 Z"/></g>
<g><path style="opacity:0.647" fill="#bababa" d="M 203.5,16.5 C 205.109,17.6654 205.443,18.9988 204.5,20.5C 203.566,19.4324 203.232,18.099 203.5,16.5 Z"/></g>
<g><path style="opacity:0.626" fill="#a7a7a7" d="M 396.5,65.5 C 396.5,47.5 396.5,29.5 396.5,11.5C 392.167,11.5 387.833,11.5 383.5,11.5C 383.824,18.3543 383.491,25.021 382.5,31.5C 382.5,31.1667 382.5,30.8333 382.5,30.5C 382.334,23.4921 382.5,16.4921 383,9.5C 387.737,10.4692 392.57,10.8025 397.5,10.5C 397.83,29.0076 397.497,47.3409 396.5,65.5 Z"/></g>
<g><path style="opacity:0.467" fill="#b2b2b2" d="M 133.5,18.5 C 134.906,18.9731 135.573,19.9731 135.5,21.5C 134.094,21.0269 133.427,20.0269 133.5,18.5 Z"/></g>
<g><path style="opacity:0.876" fill="#9e9e9e" d="M 264.5,9.5 C 265.117,9.61071 265.617,9.94404 266,10.5C 266.27,13.2241 266.77,15.8908 267.5,18.5C 267.71,34.5645 267.377,50.5645 266.5,66.5C 261.57,66.8025 256.737,66.4692 252,65.5C 251.333,47.5 251.333,29.5 252,11.5C 256.268,10.8599 260.435,10.1933 264.5,9.5 Z"/></g>
<g><path style="opacity:1" fill="#545454" d="M 253.5,11.5 C 257.5,11.5 261.5,11.5 265.5,11.5C 265.5,29.5 265.5,47.5 265.5,65.5C 261.5,65.5 257.5,65.5 253.5,65.5C 253.5,47.5 253.5,29.5 253.5,11.5 Z"/></g>
<g><path style="opacity:0.478" fill="#b7b7b7" d="M 19.5,17.5 C 18.2993,19.9095 16.6326,21.9095 14.5,23.5C 15.2471,20.6385 16.9138,18.6385 19.5,17.5 Z"/></g>
<g><path style="opacity:0.012" fill="#d4d4d4" d="M 60.5,20.5 C 61.8852,21.9473 61.5518,22.9473 59.5,23.5C 60.1098,22.609 60.4431,21.609 60.5,20.5 Z"/></g>
<g><path style="opacity:0.545" fill="#a4a4a4" d="M 90.5,20.5 C 90.573,22.0269 89.9063,23.0269 88.5,23.5C 88.427,21.9731 89.0937,20.9731 90.5,20.5 Z"/></g>
<g><path style="opacity:0.782" fill="#a7a7a7" d="M 361.5,29.5 C 361.5,30.1667 361.5,30.8333 361.5,31.5C 360.509,25.021 360.176,18.3543 360.5,11.5C 356.5,11.5 352.5,11.5 348.5,11.5C 348.5,29.5 348.5,47.5 348.5,65.5C 352.5,65.5 356.5,65.5 360.5,65.5C 360.175,58.3134 360.509,51.3134 361.5,44.5C 361.833,44.5 362.167,44.5 362.5,44.5C 361.987,51.8615 361.654,59.1948 361.5,66.5C 356.57,66.8025 351.737,66.4692 347,65.5C 346.833,58.5 346.667,51.5 346.5,44.5C 346.865,33.2632 347.032,22.2632 347,11.5C 352,10.1667 357,10.1667 362,11.5C 362.788,17.582 362.621,23.582 361.5,29.5 Z"/></g>
<g><path style="opacity:0.614" fill="#a5a5a5" d="M 43.5,25.5 C 40.1667,24.1667 36.8333,24.1667 33.5,25.5C 36.8333,22.8333 40.1667,22.8333 43.5,25.5 Z"/></g>
<g><path style="opacity:0.596" fill="#9c9c9c" d="M 114.5,24.5 C 112.139,24.6741 109.806,25.0074 107.5,25.5C 109.655,23.466 111.988,23.1326 114.5,24.5 Z"/></g>
<g><path style="opacity:0.4" fill="#b6b6b6" d="M 135.5,21.5 C 136.906,21.9731 137.573,22.9731 137.5,24.5C 136.094,24.0269 135.427,23.0269 135.5,21.5 Z"/></g>
<g><path style="opacity:1" fill="#8d8d8d" d="M 158.5,22.5 C 159.693,22.9704 160.36,23.9704 160.5,25.5C 161.095,28.1401 161.428,30.8067 161.5,33.5C 160.055,30.0635 159.055,26.3968 158.5,22.5 Z"/></g>
<g><path style="opacity:0.557" fill="#a6a6a6" d="M 217.5,17.5 C 217.829,20.2282 217.163,22.5615 215.5,24.5C 215.41,21.8478 216.076,19.5145 217.5,17.5 Z"/></g>
<g><path style="opacity:0.337" fill="#c6c6c6" d="M 14.5,23.5 C 14.573,25.0269 13.9063,26.0269 12.5,26.5C 12.427,24.9731 13.0937,23.9731 14.5,23.5 Z"/></g>
<g><path style="opacity:0.686" fill="#a4a4a4" d="M 230.5,22.5 C 230.279,25.0673 229.612,27.4006 228.5,29.5C 228.171,26.7718 228.837,24.4385 230.5,22.5 Z"/></g>
<g><path style="opacity:0.816" fill="#a2a2a2" d="M 120.5,26.5 C 122.833,26.8333 124.167,28.1667 124.5,30.5C 122.833,29.5 121.5,28.1667 120.5,26.5 Z"/></g>
<g><path style="opacity:0.98" fill="#989898" d="M 46.5,26.5 C 49.0961,27.2653 51.7628,27.5987 54.5,27.5C 51.5111,31.5248 48.8444,31.1914 46.5,26.5 Z"/></g>
<g><path style="opacity:0.329" fill="#bbbbbb" d="M 87.5,25.5 C 87.573,27.0269 86.9063,28.0269 85.5,28.5C 85.427,26.9731 86.0937,25.9731 87.5,25.5 Z"/></g>
<g><path style="opacity:0.91" fill="#9e9e9e" d="M 183.5,24.5 C 183.277,28.1621 182.277,31.4954 180.5,34.5C 180.723,30.8379 181.723,27.5046 183.5,24.5 Z"/></g>
<g><path style="opacity:0.863" fill="#a7a7a7" d="M 205.5,24.5 C 207.277,27.5046 208.277,30.8379 208.5,34.5C 206.723,31.4954 205.723,28.1621 205.5,24.5 Z"/></g>
<g><path style="opacity:0.191" fill="#d4d4d4" d="M 361.5,29.5 C 368.412,30.4621 375.412,30.7955 382.5,30.5C 382.5,30.8333 382.5,31.1667 382.5,31.5C 375.5,31.5 368.5,31.5 361.5,31.5C 361.5,30.8333 361.5,30.1667 361.5,29.5 Z"/></g>
<g><path style="opacity:0.208" fill="#b9b9b9" d="M 101.5,29.5 C 101.573,31.0269 100.906,32.0269 99.5,32.5C 99.427,30.9731 100.094,29.9731 101.5,29.5 Z"/></g>
<g><path style="opacity:0.486" fill="#bababa" d="M 12.5,26.5 C 12.5905,29.1522 11.9238,31.4855 10.5,33.5C 10.4095,30.8478 11.0762,28.5145 12.5,26.5 Z"/></g>
<g><path style="opacity:0.757" fill="#acacac" d="M 213.5,32.5 C 213.435,35.4282 212.768,38.0948 211.5,40.5C 211.294,37.5049 211.96,34.8383 213.5,32.5 Z"/></g>
<g><path style="opacity:0.663" fill="#a7a7a7" d="M 161.5,33.5 C 163.163,35.4385 163.829,37.7718 163.5,40.5C 162.388,38.4006 161.721,36.0673 161.5,33.5 Z"/></g>
<g><path style="opacity:0.275" fill="#bababa" d="M 195.5,38.5 C 193.456,41.6229 191.789,44.9562 190.5,48.5C 191.025,43.9236 192.359,39.5903 194.5,35.5C 195.386,36.325 195.719,37.325 195.5,38.5 Z"/></g>
<g><path style="opacity:0.541" fill="#a4a4a4" d="M 28.5,28.5 C 26.7407,31.6164 25.4074,34.9498 24.5,38.5C 25.1556,40.4534 25.4889,42.4534 25.5,44.5C 22.2609,38.4359 23.2609,33.1026 28.5,28.5 Z"/></g>
<g><path style="opacity:0.394" fill="#bbbbbb" d="M 85.5,29.5 C 84.1667,35.5 84.1667,41.5 85.5,47.5C 84.0092,44.8136 83.3425,41.8136 83.5,38.5C 83.3425,35.1864 84.0092,32.1864 85.5,29.5 Z"/></g>
<g><path style="opacity:0.578" fill="#b4b4b4" d="M 139.5,28.5 C 141.03,31.6952 141.696,35.1952 141.5,39C 141.497,41.6903 141.164,44.1903 140.5,46.5C 140.64,40.4638 140.307,34.4638 139.5,28.5 Z"/></g>
<g><path style="opacity:0.78" fill="#a7a7a7" d="M 208.5,34.5 C 209.738,36.2143 210.405,38.2143 210.5,40.5C 208.926,38.8984 208.259,36.8984 208.5,34.5 Z"/></g>
<g><path style="opacity:1" fill="#989898" d="M 227.5,33.5 C 227.077,38.5401 225.744,43.2068 223.5,47.5C 223.646,42.3298 224.979,37.6631 227.5,33.5 Z"/></g>
<g><path style="opacity:0.353" fill="#ababab" d="M 99.5,32.5 C 98.8413,35.4552 98.5079,38.4552 98.5,41.5C 97.3659,39.0336 97.1993,36.367 98,33.5C 98.3826,32.944 98.8826,32.6107 99.5,32.5 Z"/></g>
<g><path style="opacity:0.522" fill="#b3b3b3" d="M 175.5,32.5 C 176.924,34.5145 177.59,36.8478 177.5,39.5C 176.076,37.4855 175.41,35.1522 175.5,32.5 Z"/></g>
<g><path style="opacity:0.427" fill="#a8a8a8" d="M 65.5,49.5 C 66.3136,44.8809 66.6469,40.2142 66.5,35.5C 56.5,35.5 46.5,35.5 36.5,35.5C 36.5,39.5 36.5,43.5 36.5,47.5C 40.8839,47.1744 45.2172,47.5078 49.5,48.5C 48.7174,50.2882 47.3841,51.2882 45.5,51.5C 45.9528,50.5416 46.6195,49.7083 47.5,49C 43.5138,48.5012 39.5138,48.3345 35.5,48.5C 35.5,43.8333 35.5,39.1667 35.5,34.5C 46.0821,34.8199 56.5821,34.4866 67,33.5C 67.6667,38.5 67.6667,43.5 67,48.5C 66.6174,49.056 66.1174,49.3893 65.5,49.5 Z"/></g>
<g><path style="opacity:0.294" fill="#cfcfcf" d="M 179.5,38.5 C 178.968,41.4596 178.301,41.7929 177.5,39.5C 178.167,39.1667 178.833,38.8333 179.5,38.5 Z"/></g>
<g><path style="opacity:0.465" fill="#aeaeae" d="M 286.5,23.5 C 291.167,23.5 295.833,23.5 300.5,23.5C 300.5,37.5 300.5,51.5 300.5,65.5C 304.833,65.5 309.167,65.5 313.5,65.5C 309.03,66.4861 304.363,66.8195 299.5,66.5C 299.309,52.6495 299.309,38.6495 299.5,24.5C 294.968,24.8182 290.634,24.4849 286.5,23.5 Z"/></g>
<g><path style="opacity:0.199" fill="#c7c7c7" d="M 327.5,23.5 C 323.366,24.4849 319.032,24.8182 314.5,24.5C 314.829,38.3435 314.496,52.0102 313.5,65.5C 313.5,51.5 313.5,37.5 313.5,23.5C 318.167,23.5 322.833,23.5 327.5,23.5 Z"/></g>
<g><path style="opacity:0.651" fill="#a7a7a7" d="M 163.5,40.5 C 165.163,42.4385 165.829,44.7718 165.5,47.5C 164.388,45.4006 163.721,43.0673 163.5,40.5 Z"/></g>
<g><path style="opacity:0.365" fill="#b4b4b4" d="M 25.5,44.5 C 26.9063,44.9731 27.573,45.9731 27.5,47.5C 26.0937,47.0269 25.427,46.0269 25.5,44.5 Z"/></g>
<g><path style="opacity:0.651" fill="#a5a5a5" d="M 126.5,42.5 C 126.975,45.3126 125.975,47.3126 123.5,48.5C 124.508,46.4561 125.508,44.4561 126.5,42.5 Z"/></g>
<g><path style="opacity:0.619" fill="#929292" d="M 361.5,44.5 C 368.321,43.3454 375.321,43.1787 382.5,44C 383.48,51.0787 383.813,58.2454 383.5,65.5C 387.833,65.5 392.167,65.5 396.5,65.5C 392.03,66.4861 387.363,66.8195 382.5,66.5C 382.141,59.6399 381.974,52.6399 382,45.5C 375.59,44.5223 369.09,44.189 362.5,44.5C 362.167,44.5 361.833,44.5 361.5,44.5 Z"/></g>
<g><path style="opacity:0.678" fill="#b2b2b2" d="M 100.5,46.5 C 101.833,47.1667 102.833,48.1667 103.5,49.5C 101.5,49.5 100.5,48.5 100.5,46.5 Z"/></g>
<g><path style="opacity:0.643" fill="#a2a2a2" d="M 123.5,48.5 C 122.738,50.2624 121.404,51.2624 119.5,51.5C 120.262,49.7376 121.596,48.7376 123.5,48.5 Z"/></g>
<g><path style="opacity:1" fill="#8a8a8a" d="M 190.5,48.5 C 190.279,51.0673 189.612,53.4006 188.5,55.5C 187.99,52.6122 188.656,50.2789 190.5,48.5 Z"/></g>
<g><path style="opacity:0.894" fill="#989898" d="M 27.5,47.5 C 29.695,49.4244 32.0283,51.0911 34.5,52.5C 30.6842,52.7372 28.3508,51.0706 27.5,47.5 Z"/></g>
<g><path style="opacity:0.114" fill="#d1d1d1" d="M 104.5,50.5 C 106.38,50.2291 107.713,50.8958 108.5,52.5C 106.847,52.3404 105.514,51.6737 104.5,50.5 Z"/></g>
<g><path style="opacity:0.259" fill="#c7c7c7" d="M 140.5,46.5 C 140.206,49.7541 138.873,52.4208 136.5,54.5C 137.326,51.5152 138.659,48.8485 140.5,46.5 Z"/></g>
<g><path style="opacity:0.722" fill="#a2a2a2" d="M 165.5,48.5 C 167.163,50.4385 167.829,52.7718 167.5,55.5C 166.388,53.4006 165.721,51.0673 165.5,48.5 Z"/></g>
<g><path style="opacity:0.722" fill="#afafaf" d="M 44.5,51.5 C 44.3893,52.1174 44.056,52.6174 43.5,53C 40.3035,53.8045 37.3035,53.6378 34.5,52.5C 37.9023,52.6576 41.2356,52.3242 44.5,51.5 Z"/></g>
<g><path style="opacity:0.2" fill="#c5c5c5" d="M 65.5,49.5 C 65.7709,51.3797 65.1042,52.713 63.5,53.5C 63.6596,51.847 64.3263,50.5137 65.5,49.5 Z"/></g>
<g><path style="opacity:0.02" fill="#b2b2b2" d="M 199.5,51.5 C 200.924,53.5145 201.59,55.8478 201.5,58.5C 200.076,56.4855 199.41,54.1522 199.5,51.5 Z"/></g>
<g><path style="opacity:0.078" fill="#cecece" d="M 136.5,54.5 C 136.573,56.0269 135.906,57.0269 134.5,57.5C 134.427,55.9731 135.094,54.9731 136.5,54.5 Z"/></g>
<g><path style="opacity:0.435" fill="#b2b2b2" d="M 188.5,55.5 C 188.59,58.1522 187.924,60.4855 186.5,62.5C 186.41,59.8478 187.076,57.5145 188.5,55.5 Z"/></g>
<g><path style="opacity:0.318" fill="#b7b7b7" d="M 221.5,55.5 C 221.435,58.4282 220.768,61.0948 219.5,63.5C 219.294,60.5049 219.96,57.8383 221.5,55.5 Z"/></g>
<g><path style="opacity:0.106" fill="#b0b0b0" d="M 16.5,56.5 C 17.5,56.8333 18.1667,57.5 18.5,58.5C 17.1667,58.5 16.5,57.8333 16.5,56.5 Z"/></g>
<g><path style="opacity:0.024" fill="#c5c5c5" d="M 61.5,56.5 C 61.5,57.8333 60.8333,58.5 59.5,58.5C 59.8333,57.5 60.5,56.8333 61.5,56.5 Z"/></g>
<g><path style="opacity:0.678" fill="#a6a6a6" d="M 90.5,57.5 C 92.4044,57.7376 93.7377,58.7376 94.5,60.5C 92.5956,60.2624 91.2623,59.2624 90.5,57.5 Z"/></g>
<g><path style="opacity:0.988" fill="#969696" d="M 18.5,58.5 C 20.1898,58.8564 21.1898,59.8564 21.5,61.5C 19.5,61.5 18.5,60.5 18.5,58.5 Z"/></g>
<g><path style="opacity:1" fill="#909090" d="M 57.5,60.5 C 56.7377,62.2624 55.4044,63.2624 53.5,63.5C 54.5981,62.603 54.5981,61.7697 53.5,61C 54.7932,60.51 56.1266,60.3433 57.5,60.5 Z"/></g>
<g><path style="opacity:0.031" fill="#c8c8c8" d="M 131.5,60.5 C 131.027,61.9063 130.027,62.573 128.5,62.5C 128.973,61.0937 129.973,60.427 131.5,60.5 Z"/></g>
<g><path style="opacity:0.663" fill="#9f9f9f" d="M 201.5,58.5 C 203.074,60.1016 203.741,62.1016 203.5,64.5C 202.262,62.7857 201.595,60.7857 201.5,58.5 Z"/></g>
<g><path style="opacity:0.463" fill="#a1a1a1" d="M 21.5,61.5 C 23.0269,61.427 24.0269,62.0937 24.5,63.5C 22.9731,63.573 21.9731,62.9063 21.5,61.5 Z"/></g>
<g><path style="opacity:0.651" fill="#b0b0b0" d="M 51.5,64.5 C 50.0697,65.5375 48.403,66.2041 46.5,66.5C 47.6354,64.7868 49.302,64.1201 51.5,64.5 Z"/></g>
<g><path style="opacity:0.345" fill="#b7b7b7" d="M 127.5,63.5 C 125.208,65.2671 122.542,66.2671 119.5,66.5C 121.792,64.7329 124.458,63.7329 127.5,63.5 Z"/></g>
<g><path style="opacity:0.444" fill="#afafaf" d="M 186.5,62.5 C 186.5,63.8333 186.5,65.1667 186.5,66.5C 180.974,66.8214 175.64,66.4881 170.5,65.5C 175.5,65.5 180.5,65.5 185.5,65.5C 185.263,64.209 185.596,63.209 186.5,62.5 Z"/></g>
<g><path style="opacity:0.459" fill="#aeaeae" d="M 219.5,63.5 C 219.5,64.5 219.5,65.5 219.5,66.5C 213.974,66.8214 208.64,66.4881 203.5,65.5C 209.135,66.0366 214.468,65.3699 219.5,63.5 Z"/></g>
<g><path style="opacity:0.545" fill="#a2a2a2" d="M 24.5,63.5 C 27.6473,63.7366 30.6473,64.5699 33.5,66C 37.4862,66.4988 41.4862,66.6655 45.5,66.5C 38.1164,68.3918 31.1164,67.3918 24.5,63.5 Z"/></g>
</svg>
